<?xml version="1.0" encoding="utf-8"?>
<!-- Generator: Adobe Illustrator 21.0.0, SVG Export Plug-In . SVG Version: 6.00 Build 0)  -->
<svg version="1.1" id="Capa_1" xmlns="http://www.w3.org/2000/svg" xmlns:xlink="http://www.w3.org/1999/xlink" x="0px" y="0px"
	 viewBox="0 0 1440 1082" style="enable-background:new 0 0 1440 1082;" xml:space="preserve">
<style type="text/css">
	.st0{fill:#2E2E2E;}
	.st1{fill:#131211;}
	.st2{fill:#232322;}
	.st3{fill:#003767;}
	.st4{fill:#262626;}
</style>
<polygon class="st0" points="992.1,0.1 899.1,0.1 718.8,0.1 718.8,180.5 899.1,180.5 992.1,180.5 992.1,93.1 1079.4,180.5 
	1079.4,87.5 "/>
<path class="st0" d="M719,180.6h-90.2v179.9h90.1l0,0.2h90l0.2-180.1H719z M719,299.2v-51.1c6.2,0,12.6,2.3,17.8,7.5
	C752.7,271.6,741.5,299,719,299.2z"/>
<g>
	<path class="st1" d="M0.4,180.5h180.3V0.1l-161.4,0C8.9,0.1,0.4,8.6,0.4,19.1V180.5z"/>
	<path class="st2" d="M180.7,0.1H0.4v180.3C0.4,80.9,81.1,0.1,180.7,0.1z"/>
</g>
<g>
	<path class="st0" d="M361,541.1L361,541.1l0-180.3H180.7v0C180.7,460.3,261.4,541.1,361,541.1z"/>
	<path class="st1" d="M228.6,473.2L228.6,473.2c0,14.1,11.5,25.6,25.6,25.6h0c22.8,0,34.2-27.6,18.1-43.7l0,0
		C256.1,439,228.6,450.4,228.6,473.2z"/>
</g>
<g>
	
		<rect x="180.7" y="90.3" transform="matrix(-1 -1.224647e-16 1.224647e-16 -1 541.6538 270.7518)" class="st0" width="180.3" height="90.2"/>
	<polygon class="st1" points="180.7,0.1 180.7,90.3 270.8,90.3 	"/>
	<polygon class="st2" points="270.8,0.1 270.8,90.3 361,90.3 	"/>
</g>
<g>
	
		<rect x="270.8" y="180.5" transform="matrix(-1 -1.224647e-16 1.224647e-16 -1 631.8069 541.2122)" class="st0" width="90.2" height="180.3"/>
	
		<rect x="180.7" y="180.5" transform="matrix(-1 -1.224647e-16 1.224647e-16 -1 451.5006 541.2104)" class="st1" width="90.2" height="180.3"/>
	<polygon class="st2" points="180.7,273.4 180.7,360.8 270.8,360.8 	"/>
</g>
<g>
	<polygon class="st0" points="90.5,180.5 90.5,270.6 0.4,180.5 0.4,180.5 0.4,360.8 180.7,360.8 180.7,180.5 	"/>
	<polygon class="st2" points="180.7,273.4 180.7,360.8 90.5,360.8 	"/>
</g>
<g>
	<polyline class="st0" points="0.4,541.1 180.7,541.1 180.7,360.8 	"/>
	<polyline class="st2" points="180.7,360.8 0.4,360.8 0.4,541.1 	"/>
	<polygon class="st2" points="93.3,360.8 180.7,360.8 180.7,450.9 	"/>
</g>
<polyline class="st2" points="538.5,180.5 718.8,180.5 718.8,0.1 "/>
<rect x="538.5" y="360.8" class="st3" width="180.3" height="180.3"/>
<path class="st1" d="M676.5,155.3L676.5,155.3c0-14.1-11.5-25.6-25.6-25.6h0c-22.8,0-34.2,27.6-18.1,43.7l0,0
	C649,189.5,676.5,178.1,676.5,155.3z"/>
<polyline class="st4" points="718.8,0.1 538.5,0.1 538.5,180.5 "/>
<path class="st0" d="M538.5,180.5H358.2v0c0,99.6,80.7,180.3,180.3,180.3h0V180.5z"/>
<polygon class="st1" points="358.2,0.1 358.2,180.5 538.5,180.5 538.5,87.5 451.1,0.1 "/>
<polygon class="st4" points="538.5,267.8 538.5,180.5 451.1,180.5 "/>
<g>
	<rect x="538.5" y="360.8" class="st4" width="180.3" height="180.3"/>
	<rect x="628.6" y="360.8" class="st2" width="90.2" height="180.3"/>
</g>
<g>
	<rect x="538.5" y="180.5" class="st1" width="90.2" height="180.3"/>
	<polygon class="st2" points="628.6,180.5 538.5,180.5 538.5,267.8 	"/>
	<path class="st1" d="M718.8,248.1c-0.1,0-0.1,0-0.2,0l0,0c-22.8,0-34.2,27.6-18.1,43.7v0c5.3,5.3,11.9,7.6,18.3,7.5V248.1z"/>
</g>
<g>
	<polygon class="st0" points="358.2,450.9 358.2,541.1 538.5,541.1 538.5,541.1 448.3,450.9 448.3,541.1 	"/>
	<polygon class="st0" points="538.5,360.8 358.2,360.8 358.2,450.9 448.3,450.9 538.5,450.9 	"/>
</g>
<polyline class="st2" points="1259.7,180.5 1440,180.5 1440,0.1 "/>
<polyline class="st0" points="1440,0.1 1259.7,0.1 1259.7,180.5 "/>
<path class="st0" d="M1079.4,180.5L1079.4,180.5l0,180.3h180.3v0C1259.7,261.2,1179,180.5,1079.4,180.5z"/>
<polygon class="st4" points="1259.7,180.5 1259.7,0.1 1079.4,0.1 1079.4,93.1 1166.7,180.5 "/>
<path class="st1" d="M1169.5,119.9L1169.5,119.9c0-14.1-11.5-25.6-25.6-25.6h0c-22.8,0-34.2,27.6-18.1,43.7l0,0
	C1142,154.1,1169.5,142.7,1169.5,119.9z"/>
<g>
	<polyline class="st4" points="1349.8,541.1 1440,541.1 1440,360.8 1349.8,360.8 	"/>
</g>
<g>
	<rect x="1259.7" y="180.5" class="st1" width="90.2" height="180.3"/>
	<path class="st0" d="M1349.9,180.6v67.4c6.4-0.1,13,2.2,18.3,7.5v0c16.1,16.1,4.7,43.7-18.1,43.7c-0.1,0-0.1,0-0.2,0v61.3h90V180.6
		H1349.9z"/>
</g>
<g>
	<polygon class="st2" points="1259.7,360.8 1259.7,541.1 1349.8,541.1 1349.8,450.9 1349.8,360.8 	"/>
	<polygon class="st0" points="1349.8,541.1 1440,541.1 1440,360.8 1440,360.8 1349.8,450.9 1440,450.9 	"/>
	<polygon class="st0" points="1259.7,360.8 1079.4,360.8 1079.4,450.9 1169.5,450.9 1259.7,450.9 	"/>
	<polygon class="st4" points="1259.7,450.9 1079.4,450.9 1079.4,541.1 1169.5,541.1 1259.7,541.1 	"/>
</g>
<polygon class="st1" points="1259.7,90.3 1349.8,90.3 1349.8,0.1 "/>
<path class="st1" d="M1330.4,413.8L1330.4,413.8c0-14.1-11.5-25.6-25.6-25.6h0c-22.8,0-34.2,27.6-18.1,43.7l0,0
	C1302.8,448,1330.4,436.6,1330.4,413.8z"/>
<polygon class="st2" points="1079.4,272 1079.4,362.2 1169.5,362.2 "/>
<rect x="808.9" y="180.5" transform="matrix(-1 -1.224647e-16 1.224647e-16 -1 1708.0105 541.2104)" class="st2" width="90.2" height="180.3"/>
<polygon class="st1" points="808.9,360.8 899.1,360.8 899.1,273.4 "/>
<path class="st0" d="M899.1,180.5v180.3h180.3V199.4c0-10.5-8.5-18.9-18.9-18.9H899.1z"/>
<path class="st2" d="M1079.4,360.8V180.5H899.1C998.7,180.5,1079.4,261.2,1079.4,360.8z"/>
<path class="st4" d="M899.1,541.1L899.1,541.1c99.6,0,180.3-80.7,180.3-180.3v0H899.1V541.1z"/>
<polygon class="st1" points="718.8,93.1 718.8,180.5 806.1,180.5 "/>
<path class="st1" d="M755.4,439.4L755.4,439.4c0,14.1,11.5,25.6,25.6,25.6h0c22.8,0,34.2-27.6,18.1-43.7l0,0
	C783,405.2,755.4,416.6,755.4,439.4z"/>
<polyline class="st2" points="899.1,360.8 718.8,360.8 718.8,541.1 "/>
<polyline class="st4" points="718.8,541.1 899.1,541.1 899.1,360.8 "/>
<path class="st1" d="M755.4,439.4L755.4,439.4c0,14.1,11.5,25.6,25.6,25.6h0c22.8,0,34.2-27.6,18.1-43.7l0,0
	C783,405.2,755.4,416.6,755.4,439.4z"/>
<polyline class="st1" points="899.1,360.8 808.9,360.8 854,405.8 "/>
<polygon class="st0" points="806.3,1082.1 899.3,1082.1 1079.6,1082.1 1079.6,901.8 899.3,901.8 806.3,901.8 806.3,989.1 719,901.8 
	719,994.7 "/>
<path class="st0" d="M1079.4,901.6h90.2V721.6h-90.1l0-0.2h-90l-0.2,180.1H1079.4z M1079.4,783v51.1c-6.2,0-12.6-2.3-17.8-7.5
	C1045.6,810.6,1056.9,783.2,1079.4,783z"/>
<g>
	<path class="st1" d="M358,901.8H177.7v180.3h161.4c10.5,0,18.9-8.5,18.9-18.9V901.8z"/>
	<path class="st2" d="M177.7,1082.1H358V901.8C358,1001.3,277.3,1082.1,177.7,1082.1z"/>
</g>
<g>
	<path class="st0" d="M-2.6,541.1L-2.6,541.1l0,180.3h180.3v0C177.7,621.9,97,541.1-2.6,541.1z"/>
	<path class="st1" d="M129.8,609L129.8,609c0-14.1-11.5-25.6-25.6-25.6h0c-22.8,0-34.2,27.6-18.1,43.7l0,0
		C102.2,643.2,129.8,631.8,129.8,609z"/>
</g>
<g>
	<rect x="-2.6" y="901.8" class="st0" width="180.3" height="90.2"/>
	<polygon class="st1" points="177.7,1082.1 177.7,991.9 87.5,991.9 	"/>
	<polygon class="st2" points="87.5,1082.1 87.5,991.9 -2.6,991.9 	"/>
</g>
<g>
	<rect x="-2.6" y="721.5" class="st0" width="90.2" height="180.3"/>
	<rect x="87.5" y="721.5" class="st1" width="90.2" height="180.3"/>
	<polygon class="st2" points="177.7,808.8 177.7,721.5 87.5,721.5 	"/>
</g>
<g>
	<polygon class="st0" points="267.8,901.8 267.8,811.6 358,901.8 358,901.8 358,721.5 177.7,721.5 177.7,901.8 	"/>
	<polygon class="st2" points="177.7,808.8 177.7,721.5 267.8,721.5 	"/>
</g>
<g>
	<polyline class="st0" points="358,541.1 177.7,541.1 177.7,721.5 	"/>
	<polyline class="st2" points="177.7,721.5 358,721.5 358,541.1 	"/>
	<polygon class="st2" points="265,721.5 177.7,721.5 177.7,631.3 	"/>
</g>
<polyline class="st2" points="1259.9,901.8 1079.6,901.8 1079.6,1082.1 "/>
<rect x="1079.6" y="541.1" transform="matrix(-1 -1.224647e-16 1.224647e-16 -1 2339.49 1262.5995)" class="st3" width="180.3" height="180.3"/>
<path class="st1" d="M1121.9,926.9L1121.9,926.9c0,14.1,11.5,25.6,25.6,25.6l0,0c22.8,0,34.2-27.6,18.1-43.7l0,0
	C1149.4,892.7,1121.9,904.1,1121.9,926.9z"/>
<polyline class="st4" points="1079.6,1082.1 1259.9,1082.1 1259.9,901.8 "/>
<path class="st0" d="M1259.9,901.8h180.3v0c0-99.6-80.7-180.3-180.3-180.3h0V901.8z"/>
<polygon class="st1" points="1440.2,1082.1 1440.2,901.8 1259.9,901.8 1259.9,994.7 1347.2,1082.1 "/>
<polygon class="st4" points="1259.9,814.4 1259.9,901.8 1347.2,901.8 "/>
<g>
	
		<rect x="1079.6" y="541.1" transform="matrix(-1 -1.224647e-16 1.224647e-16 -1 2339.49 1262.5995)" class="st4" width="180.3" height="180.3"/>
	
		<rect x="1079.6" y="541.1" transform="matrix(-1 -1.224647e-16 1.224647e-16 -1 2249.3369 1262.5995)" class="st2" width="90.2" height="180.3"/>
</g>
<g>
	
		<rect x="1169.7" y="721.5" transform="matrix(-1 -1.224647e-16 1.224647e-16 -1 2429.6433 1623.2122)" class="st1" width="90.2" height="180.3"/>
	<polygon class="st2" points="1169.7,901.8 1259.9,901.8 1259.9,814.4 	"/>
	<path class="st1" d="M1079.6,834.1c0.1,0,0.1,0,0.2,0l0,0c22.8,0,34.2-27.6,18.1-43.7v0c-5.3-5.3-11.9-7.6-18.3-7.5V834.1z"/>
</g>
<g>
	<polygon class="st0" points="1440.2,631.3 1440.2,541.1 1259.9,541.1 1259.9,541.1 1350.1,631.3 1350.1,541.1 	"/>
	<polygon class="st0" points="1259.9,721.5 1440.2,721.5 1440.2,631.3 1350.1,631.3 1259.9,631.3 	"/>
</g>
<polyline class="st2" points="538.7,901.8 358.4,901.8 358.4,1082.1 "/>
<polyline class="st0" points="358.4,1082.1 538.7,1082.1 538.7,901.8 "/>
<path class="st0" d="M719,901.8L719,901.8l0-180.3H538.7v0C538.7,821,619.4,901.8,719,901.8z"/>
<polygon class="st4" points="538.7,901.8 538.7,1082.1 719,1082.1 719,989.1 631.6,901.8 "/>
<path class="st1" d="M628.8,962.3L628.8,962.3c0,14.1,11.5,25.6,25.6,25.6h0c22.8,0,34.2-27.6,18.1-43.7l0,0
	C656.4,928.1,628.8,939.5,628.8,962.3z"/>
<g>
	<polyline class="st4" points="448.5,541.1 358.4,541.1 358.4,721.5 448.5,721.5 	"/>
</g>
<g>
	
		<rect x="448.5" y="721.5" transform="matrix(-1 -1.224647e-16 1.224647e-16 -1 987.1943 1623.2122)" class="st1" width="90.2" height="180.3"/>
	<path class="st0" d="M448.4,901.6v-67.4c-6.4,0.1-13-2.2-18.3-7.5v0c-16.1-16.1-4.7-43.7,18.1-43.7c0.1,0,0.1,0,0.2,0v-61.3h-90
		v179.9H448.4z"/>
</g>
<g>
	<polygon class="st2" points="538.7,721.5 538.7,541.1 448.5,541.1 448.5,631.3 448.5,721.5 	"/>
	<polygon class="st0" points="448.5,541.1 358.4,541.1 358.4,721.5 358.4,721.5 448.5,631.3 358.4,631.3 	"/>
	<polygon class="st0" points="538.7,721.5 719,721.5 719,631.3 628.8,631.3 538.7,631.3 	"/>
	<polygon class="st4" points="538.7,631.3 719,631.3 719,541.1 628.8,541.1 538.7,541.1 	"/>
</g>
<polygon class="st1" points="538.7,991.9 448.5,991.9 448.5,1082.1 "/>
<path class="st1" d="M468,668.5L468,668.5c0,14.1,11.5,25.6,25.6,25.6h0c22.8,0,34.2-27.6,18.1-43.7l0,0
	C495.5,634.2,468,645.7,468,668.5z"/>
<polygon class="st2" points="719,810.2 719,720 628.8,720 "/>
<rect x="899.3" y="721.5" class="st2" width="90.2" height="180.3"/>
<polygon class="st1" points="989.4,721.5 899.3,721.5 899.3,808.8 "/>
<path class="st0" d="M899.3,901.8V721.5H719v161.4c0,10.5,8.5,18.9,18.9,18.9H899.3z"/>
<path class="st2" d="M719,721.5v180.3h180.3C799.7,901.8,719,821,719,721.5z"/>
<path class="st4" d="M899.3,541.1L899.3,541.1c-99.6,0-180.3,80.7-180.3,180.3v0h180.3V541.1z"/>
<polygon class="st1" points="1079.6,989.1 1079.6,901.8 992.3,901.8 "/>
<path class="st1" d="M1043,642.8L1043,642.8c0-14.1-11.5-25.6-25.6-25.6h0c-22.8,0-34.2,27.6-18.1,43.7l0,0
	C1015.4,677,1043,665.6,1043,642.8z"/>
<polyline class="st2" points="899.3,721.5 1079.6,721.5 1079.6,541.1 "/>
<polyline class="st4" points="1079.6,541.1 899.3,541.1 899.3,721.5 "/>
<path class="st1" d="M1043,642.8L1043,642.8c0-14.1-11.5-25.6-25.6-25.6h0c-22.8,0-34.2,27.6-18.1,43.7l0,0
	C1015.4,677,1043,665.6,1043,642.8z"/>
<polyline class="st1" points="899.3,721.5 989.4,721.5 944.4,676.4 "/>
<text transform="matrix(1 0 0 1 185 -117)" style="font-family:'MyriadPro-Regular'; font-size:12px;">Lorem ipsum</text>
</svg>
