<svg id="Capa_1" data-name="Capa 1" xmlns="http://www.w3.org/2000/svg" viewBox="0 0 64 64"><defs><style>.cls-1{fill:#d2d1ce;}.cls-2{fill:#bdbdba;}.cls-3{fill:#fff;}.cls-4{fill:#64615e;}</style></defs><title>tilesDemos</title><polyline class="cls-1" points="32 64 64 64 64 0 32 0"/><polygon class="cls-2" points="0 0 0 64 32 64 32 32 32 0 0 0"/><polygon class="cls-3" points="32 64 64 64 64 0 64 0 32 32 64 32 32 64"/><path class="cls-4" d="M25.09,18.81h0A9.08,9.08,0,0,0,16,9.73h0a9.08,9.08,0,0,0-6.42,15.5h0A9.08,9.08,0,0,0,25.09,18.81Z"/></svg>